<svg width="24" height="24" viewBox="0 0 24 24" fill="none" xmlns="http://www.w3.org/2000/svg">
<path d="M21.5139 6.95432C21.2327 6.67311 20.8512 6.51514 20.4534 6.51514C20.0557 6.51514 19.6742 6.67311 19.3929 6.95432L11.9679 14.3793L4.54295 6.95432C4.26004 6.68108 3.88114 6.52989 3.48784 6.53331C3.09455 6.53673 2.71833 6.69448 2.44022 6.97259C2.1621 7.2507 2.00435 7.62692 2.00093 8.02022C1.99752 8.41351 2.14871 8.79242 2.42195 9.07532L10.9074 17.5608C11.1887 17.842 11.5702 18 11.9679 18C12.3657 18 12.7472 17.842 13.0284 17.5608L21.5139 9.07532C21.7952 8.79403 21.9531 8.41257 21.9531 8.01482C21.9531 7.61707 21.7952 7.23561 21.5139 6.95432Z" fill="#7D8AFD"/>
</svg>
