<svg width="25" height="24" viewBox="0 0 25 24" fill="none" xmlns="http://www.w3.org/2000/svg">
<path d="M12.5 2.4375C10.6087 2.4375 8.75991 2.99833 7.18736 4.04907C5.61482 5.09981 4.38917 6.59327 3.66541 8.34059C2.94164 10.0879 2.75227 12.0106 3.12125 13.8656C3.49022 15.7205 4.40096 17.4244 5.7383 18.7617C7.07564 20.099 8.77951 21.0098 10.6345 21.3788C12.4894 21.7477 14.4121 21.5584 16.1594 20.8346C17.9067 20.1108 19.4002 18.8852 20.4509 17.3126C21.5017 15.7401 22.0625 13.8913 22.0625 12C22.0595 9.46478 21.0511 7.03425 19.2584 5.24158C17.4658 3.44891 15.0352 2.44048 12.5 2.4375ZM12.5 16.6875C11.5729 16.6875 10.6666 16.4126 9.89577 15.8975C9.12491 15.3824 8.5241 14.6504 8.16932 13.7938C7.81453 12.9373 7.72171 11.9948 7.90257 11.0855C8.08344 10.1762 8.52988 9.341 9.18544 8.68544C9.841 8.02988 10.6762 7.58344 11.5855 7.40257C12.4948 7.2217 13.4373 7.31453 14.2938 7.66931C15.1504 8.0241 15.8824 8.62491 16.3975 9.39576C16.9126 10.1666 17.1875 11.0729 17.1875 12C17.186 13.2427 16.6917 14.4342 15.8129 15.3129C14.9342 16.1917 13.7427 16.686 12.5 16.6875ZM16.1909 7.51312C15.301 6.77808 14.2114 6.3262 13.0625 6.21563V3.58125C14.9082 3.70364 16.662 4.43158 18.0519 5.65219L16.1909 7.51312ZM11.9375 6.21563C10.7886 6.3262 9.69901 6.77808 8.80907 7.51312L6.94813 5.65219C8.33801 4.43158 10.0918 3.70364 11.9375 3.58125V6.21563ZM8.01313 8.30906C7.27809 9.19901 6.8262 10.2886 6.71563 11.4375H4.08125C4.20343 9.59173 4.9314 7.83789 6.15219 6.44812L8.01313 8.30906ZM6.71563 12.5625C6.8262 13.7114 7.27809 14.801 8.01313 15.6909L6.15219 17.5519C4.9314 16.1621 4.20343 14.4083 4.08125 12.5625H6.71563ZM8.80907 16.4869C9.69901 17.2219 10.7886 17.6738 11.9375 17.7844V20.4188C10.0918 20.2964 8.33801 19.5684 6.94813 18.3478L8.80907 16.4869ZM13.0625 17.7844C14.2114 17.6738 15.301 17.2219 16.1909 16.4869L18.0519 18.3478C16.662 19.5684 14.9082 20.2964 13.0625 20.4188V17.7844ZM16.9869 15.6909C17.7219 14.801 18.1738 13.7114 18.2844 12.5625H20.9188C20.7966 14.4083 20.0686 16.1621 18.8478 17.5519L16.9869 15.6909ZM18.2844 11.4375C18.1738 10.2886 17.7219 9.19901 16.9869 8.30906L18.8478 6.44812C20.0686 7.83789 20.7966 9.59173 20.9188 11.4375H18.2844Z" fill="#FCFCFC"/>
</svg>
