<svg width="24" height="24" viewBox="0 0 24 24" fill="none" xmlns="http://www.w3.org/2000/svg">
<path d="M18.188 2.63979L5.78818 2.64927C5.44075 2.65058 5.10802 2.78958 4.86292 3.0358C4.61781 3.28203 4.48033 3.61539 4.48061 3.96282L4.50146 20.0502C4.50162 20.2226 4.53575 20.3932 4.60188 20.5525C4.66802 20.7117 4.76488 20.8563 4.88692 20.978C5.00896 21.0998 5.1538 21.1963 5.31315 21.2621C5.47251 21.3279 5.64326 21.3617 5.81566 21.3614L18.2155 21.3519C18.2929 21.3523 18.3701 21.3456 18.4462 21.332C18.7483 21.2759 19.0211 21.1156 19.2172 20.879C19.4132 20.6424 19.5201 20.3445 19.5191 20.0372L19.4982 3.94986C19.4976 3.60258 19.3593 3.26972 19.1137 3.02417C18.8682 2.77862 18.5353 2.6404 18.188 2.63979ZM18.3798 3.95208L18.4007 20.0394C18.4009 20.0642 18.3962 20.0887 18.3868 20.1116C18.3775 20.1345 18.3637 20.1553 18.3463 20.1729C18.3112 20.2079 18.2637 20.2276 18.2142 20.2277L5.81077 20.2388C5.78557 20.2392 5.76054 20.2346 5.73717 20.2252C5.7138 20.2158 5.69257 20.2017 5.67475 20.1839C5.65692 20.1661 5.64287 20.1449 5.63343 20.1215C5.624 20.0982 5.61937 20.0731 5.61982 20.0479L5.59897 3.96059C5.59879 3.93586 5.60351 3.91134 5.61285 3.88844C5.62218 3.86554 5.63596 3.84472 5.65338 3.82716C5.6894 3.79121 5.73815 3.77093 5.78905 3.77073L18.1889 3.76125C18.2141 3.76078 18.2391 3.7654 18.2625 3.77482C18.2859 3.78424 18.3071 3.79828 18.3249 3.81609C18.3427 3.83391 18.3568 3.85513 18.3662 3.8785C18.3757 3.90186 18.3803 3.92689 18.3798 3.95208ZM16.5045 6.20327C16.5056 6.33593 16.4597 6.46471 16.375 6.56684C16.2904 6.66898 16.1723 6.73789 16.0417 6.76141C16.0093 6.76716 15.9763 6.77013 15.9433 6.7703L8.04165 6.77601C7.96627 6.77852 7.89115 6.76584 7.82076 6.73873C7.75037 6.71162 7.68616 6.67064 7.63194 6.61821C7.57771 6.56578 7.53458 6.50298 7.50512 6.43355C7.47566 6.36411 7.46046 6.28947 7.46043 6.21404C7.4604 6.13861 7.47554 6.06395 7.50495 5.9945C7.53436 5.92504 7.57744 5.86221 7.63162 5.80974C7.6858 5.75726 7.74999 5.71623 7.82035 5.68906C7.89072 5.6619 7.96582 5.64916 8.04121 5.65162L15.9427 5.64498C16.0911 5.64517 16.2333 5.70394 16.3385 5.8085C16.4437 5.91306 16.5034 6.05494 16.5045 6.20327ZM16.5078 9.20095C16.5088 9.33362 16.463 9.4624 16.3783 9.56453C16.2936 9.66666 16.1756 9.73558 16.045 9.7591C16.014 9.76435 15.9825 9.76674 15.9511 9.76624L8.04954 9.77288C7.90031 9.77295 7.75717 9.71375 7.65159 9.60829C7.54602 9.50283 7.48666 9.35975 7.48658 9.21052C7.4865 9.06129 7.5457 8.91815 7.65116 8.81257C7.75663 8.707 7.89971 8.64764 8.04893 8.64756L15.9506 8.64185C16.0983 8.64325 16.2395 8.70267 16.3437 8.80728C16.448 8.91188 16.5069 9.05328 16.5078 9.20095ZM12.5653 12.2034C12.5653 12.3356 12.5187 12.4635 12.4337 12.5648C12.3488 12.666 12.2309 12.7341 12.1008 12.7571C12.0683 12.7628 12.0354 12.7658 12.0024 12.766L8.05248 12.7687C7.9771 12.7712 7.90198 12.7585 7.83159 12.7314C7.76121 12.7043 7.69699 12.6633 7.64277 12.6109C7.58854 12.5585 7.54541 12.4957 7.51595 12.4263C7.48649 12.3568 7.47129 12.2822 7.47126 12.2067C7.47123 12.1313 7.48637 12.0567 7.51578 11.9872C7.54519 11.9177 7.58827 11.8549 7.64245 11.8024C7.69663 11.75 7.76082 11.7089 7.83118 11.6818C7.90155 11.6546 7.97666 11.6419 8.05204 11.6443L12.0018 11.6407C12.0759 11.6409 12.1491 11.6557 12.2175 11.6842C12.2858 11.7128 12.3478 11.7546 12.4 11.8071C12.4521 11.8597 12.4934 11.9221 12.5213 11.9907C12.5493 12.0592 12.5635 12.1327 12.563 12.2067L12.5653 12.2034Z" fill="#FCFCFC"/>
</svg>
